<svg width="40" height="40" viewBox="0 0 40 40" fill="none" xmlns="http://www.w3.org/2000/svg">
<rect width="40" height="40" fill="white"/>
<path d="M7.56862 27C6.30351 27 5.40226 26.7399 4.86487 26.2197C4.33307 25.6996 4.05318 24.8354 4.02519 23.6272C4.01959 23.163 4.01399 22.626 4.0084 22.0164C4.0028 21.4067 4 20.7746 4 20.1202C4 19.4602 4.0028 18.8254 4.0084 18.2157C4.01399 17.6004 4.01959 17.0551 4.02519 16.5797C4.04198 15.5561 4.32747 14.745 4.88166 14.1466C5.44144 13.5425 6.3371 13.2404 7.56862 13.2404C8.77776 13.2404 9.65382 13.5005 10.1968 14.0207C10.7398 14.5353 11.0281 15.3939 11.0617 16.5964C11.0673 16.781 11.0701 16.9824 11.0701 17.2005C11.0701 17.4131 11.0673 17.6284 11.0617 17.8465C11.0561 18.0591 11.0505 18.2576 11.0449 18.4422H8.52586C8.53145 18.2353 8.53705 17.992 8.54265 17.7123C8.54825 17.427 8.55105 17.1446 8.55105 16.8649C8.55105 16.5797 8.54825 16.3335 8.54265 16.1266C8.53705 15.8581 8.44749 15.6512 8.27395 15.5057C8.10602 15.3603 7.87091 15.2876 7.56862 15.2876C7.24955 15.2876 7.00044 15.3603 6.82131 15.5057C6.64778 15.6512 6.55542 15.8581 6.54422 16.1266C6.52183 16.7139 6.50503 17.3487 6.49384 18.0311C6.48824 18.7135 6.48544 19.4099 6.48544 20.1202C6.48544 20.8306 6.48824 21.5269 6.49384 22.2093C6.50503 22.8861 6.52183 23.5154 6.54422 24.0971C6.55542 24.3711 6.64778 24.5837 6.82131 24.7347C7.00044 24.8801 7.24955 24.9528 7.56862 24.9528C7.8989 24.9528 8.1536 24.8801 8.33273 24.7347C8.51186 24.5837 8.60423 24.3711 8.60982 24.0971C8.61542 23.8957 8.61822 23.6552 8.61822 23.3755C8.62382 23.0903 8.62382 22.8078 8.61822 22.5281C8.61822 22.2429 8.61542 21.9996 8.60982 21.7982H11.1289C11.14 22.0667 11.1456 22.3715 11.1456 22.7127C11.1456 23.0539 11.14 23.3588 11.1289 23.6272C11.0953 24.8354 10.8014 25.6996 10.2472 26.2197C9.6986 26.7399 8.80575 27 7.56862 27Z" fill="#010101"/>
<path d="M11.6858 26.8322L13.5499 13.4082H17.5132L19.3772 26.8322H16.791L16.5056 24.03H14.5575L14.272 26.8322H11.6858ZM14.7926 21.815H16.2704L15.9682 18.8449L15.7666 15.6232H15.2964L15.0949 18.8449L14.7926 21.815Z" fill="#010101"/>
<path d="M20.7609 26.5917V13.1678H23.8677C25.1216 13.1678 26.0368 13.4223 26.6134 13.9312C27.19 14.4346 27.4783 15.2708 27.4783 16.4398C27.4783 16.5965 27.4783 16.7475 27.4783 16.8929C27.4783 17.0383 27.4727 17.1838 27.4615 17.3292C27.4223 17.9389 27.2852 18.4255 27.05 18.789C26.8149 19.147 26.4483 19.4099 25.9501 19.5777V19.9804C26.4651 20.1482 26.8429 20.4167 27.0836 20.7859C27.3243 21.1494 27.4559 21.6472 27.4783 22.2793C27.4895 22.4638 27.4951 22.6344 27.4951 22.7911C27.4951 22.9477 27.4895 23.1239 27.4783 23.3196C27.4279 24.483 27.1256 25.3192 26.5714 25.8282C26.0228 26.3372 25.1216 26.5917 23.8677 26.5917H20.7609ZM23.2799 24.3768H23.8677C24.2203 24.3768 24.489 24.2845 24.6738 24.0999C24.8641 23.9097 24.9593 23.6384 24.9593 23.2861C24.9593 23.135 24.9593 22.9868 24.9593 22.8414C24.9593 22.696 24.9593 22.5477 24.9593 22.3967C24.9593 21.843 24.8725 21.4515 24.6989 21.2221C24.531 20.9872 24.2539 20.8698 23.8677 20.8698H23.2799V24.3768ZM23.2799 18.6548H23.8677C24.2203 18.6548 24.489 18.5345 24.6738 18.294C24.8641 18.0479 24.9593 17.7039 24.9593 17.2621C24.9593 17.0999 24.9593 16.9404 24.9593 16.7838C24.9593 16.6216 24.9593 16.4622 24.9593 16.3056C24.9593 16.0092 24.8641 15.7826 24.6738 15.626C24.489 15.4638 24.2203 15.3827 23.8677 15.3827H23.2799V18.6548Z" fill="#010101"/>
<path d="M32.4482 26.7595C31.2167 26.7595 30.3378 26.4995 29.8116 25.9793C29.291 25.4591 29.0055 24.5949 28.9551 23.3868C28.9495 23.2078 28.9467 23.012 28.9467 22.7995C28.9467 22.5813 28.9523 22.366 28.9635 22.1535C28.9747 21.9353 28.9943 21.7368 29.0223 21.5578H31.3902C31.3678 21.9661 31.3538 22.3688 31.3482 22.7659C31.3426 23.163 31.3566 23.5266 31.3902 23.8566C31.4182 24.1307 31.5161 24.3432 31.6841 24.4943C31.8576 24.6397 32.1123 24.7124 32.4482 24.7124C32.7785 24.7124 33.0191 24.6397 33.1703 24.4943C33.327 24.3432 33.4222 24.1307 33.4558 23.8566C33.4782 23.6664 33.4922 23.4791 33.4978 23.2945C33.509 23.1043 33.509 22.9169 33.4978 22.7324C33.4922 22.5422 33.4782 22.352 33.4558 22.1618C33.4334 21.9269 33.3606 21.7144 33.2375 21.5242C33.1143 21.334 32.9184 21.2054 32.6497 21.1383L31.2726 20.7859C30.6904 20.6349 30.2286 20.4195 29.8872 20.1399C29.5457 19.8546 29.2966 19.5022 29.1398 19.0827C28.9887 18.6632 28.9047 18.1738 28.8879 17.6145C28.8823 17.3684 28.8795 17.1502 28.8795 16.9601C28.8795 16.7643 28.8823 16.5629 28.8879 16.356C28.9215 15.5561 29.0559 14.9101 29.291 14.4179C29.5317 13.9257 29.9067 13.5677 30.4162 13.344C30.9256 13.1147 31.6029 13 32.4482 13C33.6405 13 34.5054 13.2601 35.0428 13.7803C35.5802 14.2949 35.8741 15.1534 35.9244 16.356C35.9356 16.5965 35.9356 16.8901 35.9244 17.2369C35.9188 17.5837 35.9076 17.9053 35.8908 18.2018H33.4726C33.4894 17.8158 33.5006 17.4299 33.5062 17.044C33.5118 16.658 33.5062 16.2721 33.4894 15.8861C33.4838 15.6177 33.3858 15.4107 33.1955 15.2653C33.0108 15.1199 32.7617 15.0472 32.4482 15.0472C32.1123 15.0472 31.8632 15.1199 31.7009 15.2653C31.5385 15.4107 31.4406 15.6177 31.407 15.8861C31.3734 16.1714 31.3566 16.4595 31.3566 16.7503C31.3566 17.0412 31.3734 17.3292 31.407 17.6145C31.435 17.8382 31.5133 18.0424 31.6421 18.2269C31.7708 18.4115 31.978 18.5374 32.2634 18.6045L33.4558 18.8898C34.0827 19.0408 34.5754 19.2645 34.9336 19.561C35.2975 19.8518 35.5578 20.2154 35.7145 20.6516C35.8769 21.0823 35.9692 21.5857 35.9916 22.1618C35.9972 22.2905 36 22.4247 36 22.5646C36 22.7044 35.9972 22.8442 35.9916 22.9841C35.986 23.1239 35.9804 23.2581 35.9748 23.3868C35.9244 24.5949 35.6334 25.4591 35.1016 25.9793C34.5754 26.4995 33.6909 26.7595 32.4482 26.7595Z" fill="#010101"/>
</svg>